<?xml version="1.0" encoding="UTF-8"?><svg id="a" xmlns="http://www.w3.org/2000/svg" viewBox="0 0 202.09 245.12"><defs><style>.b{fill:#ffed45;}</style></defs><g><path class="b" d="M60.9,238.19v6.79c-20.3,.28-40.6,.21-60.9-.69v-52.44c19.74,23.9,40.04,25.84,60,19.05v7.83c-14.55,4.16-29.1,4.23-43.65-4.09v6.93c11.99,5.68,23.97,6.65,35.96,4.85v7.07c-11.99,1.25-23.97,.55-35.96-3.46v6.72c14.83,3.12,29.72,3.05,44.55,1.45h0Z"/><path class="b" d="M108.98,211.93c8.66,7.21,17.32,17.74,25.91,31.59-6.65,.14-13.3,.21-19.95,.35-5.33-7.14-10.74-12.82-16.07-17.32-5.33,7.34-10.74,13.37-16.07,18.01-6.3,.14-12.61,.28-18.91,.35,8.59-5.2,17.25-13.58,25.84-25.29-8.45-5.06-16.9-6.72-25.29-10.39,6.65-2.7,13.51-5.89,20.02-10.46,5.2,2.01,10.25,3.19,15.45,6.37,5.13-8.31,11.22-17.8,16.35-27.37,6.3-3.88,13.51-8.66,19.81-11.5-8.38,15.24-18.64,32.35-27.09,45.66h0Z"/><path class="b" d="M202.09,230.92v13.23c-20.3-.9-40.6-.97-60.9-.69v-79.39c24.87-8.8,39.7-3.26,60.55,23.42v10.46c-14.55-14.76-29.58-20.37-44.13-19.61v12.96c11.99-.48,23.97,2.22,35.96,10.05v14.48c-11.99-5.54-23.97-7.41-35.96-7.07v15.03c14.83-.28,29.65,1.59,44.48,7.14h0Z"/></g><g><path class="b" d="M60.9,195.65v9.98c-20.3,7.55-40.6,5.4-60.9-21.34v-52.38c18.71,28.4,39.97,33.46,60,24.8v11.64c-14.55,6.72-29.1,6.86-43.65-6.58v8.8c11.99,10.81,23.97,12.61,35.96,9.28v10.46c-11.99,3.19-23.97,1.45-35.96-8.8v8.73c14.83,11.92,29.72,11.57,44.55,5.4h0Z"/><path class="b" d="M108.98,146.32c8.66,2.77,17.32,7.21,25.91,15.03-6.65,3.12-13.3,7.07-19.95,11.43-5.33-3.19-10.74-5.33-16.07-7.07-5.33,10.25-10.74,19.95-16.07,28.61-6.3,3.95-12.19,7.9-18.91,10.18,8.59-11.02,17.25-25.56,25.84-41.91-8.45-2.15-16.63-3.81-25.01-8.38,6.65-3.74,13.86-8.38,20.51-13.93,5.2,1.52,9.56,1.94,14.69,3.19,5.13-10.32,11.99-21.06,17.11-31.25,6.3-5.4,11.92-9.77,18.22-13.72-8.38,14.62-17.8,31.18-26.26,47.8h0Z"/><path class="b" d="M202.09,167.11v12.96c-20.3-26.74-40.6-28.96-60.9-21.34v-63.67c20.02-9.77,38.17-10.18,60.9,31.18v8.66c-14.55-23.97-30-33.12-44.55-31.94v10.25c11.99-.9,23.97,4.16,35.96,19.05v12.89c-11.99-14.13-23.97-18.98-35.96-18.08v12.05c14.9-1.04,29.72,6.17,44.55,27.99h0Z"/></g><g><path class="b" d="M60.9,137.53v13.16c-20.3,9.91-40.6,7.07-60.9-27.85v-55.29c19.19,22.31,40.11,24.66,60,18.36v16.35c-14.55,5.82-29.1,5.96-43.65-5.75v10.67c11.99,10.18,23.97,11.92,35.96,8.73v13.86c-11.99,3.33-23.97,1.52-35.96-9.21v10.74c14.83,13.72,29.72,13.3,44.55,6.24h0Z"/><path class="b" d="M108.98,84.25c8.66,2.29,17.32,4.23,25.91,8.66-6.65,4.02-13.3,9.21-19.95,14.9-5.33-1.45-10.74-2.56-16.07-4.02-5.33,10.74-10.74,21.75-16.07,32.22-6.3,5.13-12.54,9.98-18.91,13.16,8.59-14.41,17.25-31.59,25.84-48.63-8.45-2.91-16.84-8.38-25.29-16.35,6.65-2.84,13.93-6.3,20.58-10.53,5.13,3.19,9.77,5.89,14.9,7.69,5.13-9.91,11.85-19.26,16.97-27.85,6.3-4.09,11.64-6.72,17.94-9.7-8.38,11.29-17.39,24.46-25.84,40.46h0Z"/><path class="b" d="M202.09,104.62v12.68c-20.3-34.92-40.6-37.76-60.9-27.85,0-18.84,.07-34.16,.07-48.57,20.65-7.83,40.53-5.06,60.55,21.96,0,4.92-.07,4.36-.07,9.28-14.55-20.78-29.58-27.78-44.13-26.74v7.55c11.99-.9,23.97,3.95,35.96,18.01v11.36c-12.05-14.9-24.04-19.95-36.03-19.05v9.14c14.9-1.18,29.72,7.07,44.55,32.22h0Z"/></g><g><path class="b" d="M60.9,63.81v16.35c-20.3,7.21-40.6,5.13-60.9-20.23V.91c20.02,.9,40.04,.97,60,.69V20.3c-14.55,1.45-29.1,1.52-43.65-1.45v12.54c11.99,3.88,23.97,4.57,35.96,3.33v17.25c-11.99,1.73-23.97,.76-35.96-4.78v12.82c14.83,8.45,29.72,8.24,44.55,3.81h0Z"/><path class="b" d="M108.98,25.78c8.66,5.68,17.32,8.8,25.91,12.47-6.65,2.91-13.3,6.72-19.95,10.81-5.33-2.15-10.74-4.64-16.07-8.18-5.33,8.8-10.74,18.57-16.07,28.61-6.3,3.74-12.61,7.07-18.91,9.56,8.59-15.45,17.25-31.8,25.84-45.79-8.45-7.41-16.84-18.01-25.29-31.66,6.65-.07,13.3-.21,19.95-.35,5.2,7.07,10.32,12.82,15.52,17.39,5.13-7.21,10.25-13.3,15.38-18.08,6.3-.14,12.68-.28,18.98-.35-8.38,5.4-16.84,13.93-25.29,25.56h0Z"/><path class="b" d="M202.09,43.58v12.4c-20.3-25.29-40.6-27.37-60.9-20.23V.14c20.02-.28,40.88-.21,60.9,.69V12.75c-14.55-5.33-30-7.07-44.55-6.79v4.78c11.99-.35,23.97,1.52,35.96,6.86v9.84c-11.99-7.69-23.97-10.32-35.96-9.84v6.24c14.9-.83,29.72,4.3,44.55,19.74h0Z"/></g></svg>