<?xml version="1.0" encoding="UTF-8"?><svg id="a" xmlns="http://www.w3.org/2000/svg" viewBox="0 0 595.28 841.89"><defs><style>.b{fill:#00ffb0;}</style></defs><g><path class="b" d="M233.61,605.33c0,4.52,0,6.69,0,10.85-32.37,.4-64.74,.28-97.11-1.12,0-28.99,0-54.01,0-83.63,31.48,38.17,63.79,41.22,95.68,30.38,0,5.94,0,6.87,0,12.44-23.18,6.58-46.37,6.71-69.55-6.48,0,4.48,0,6.69,0,11.02,19.11,9.06,38.22,10.58,57.33,7.76,0,4.71,0,6.98,0,11.33-19.11,1.99-38.22,.92-57.33-5.48,0,4.39,0,6.54,0,10.75,23.66,4.85,47.32,4.7,70.98,2.19Z"/><path class="b" d="M310.31,563.45c13.78,11.44,27.56,28.24,41.34,50.4-10.62,.16-21.23,.37-31.85,.6-8.54-11.4-17.07-20.45-25.61-27.58-8.54,11.68-17.07,21.35-25.61,28.72-10.05,.21-20.11,.39-30.16,.53,13.74-8.3,27.47-21.61,41.21-40.37-13.43-8.08-26.9-10.74-40.33-16.58,10.62-4.29,21.57-9.36,31.96-16.68,8.23,3.16,16.39,5.1,24.63,10.16,8.19-13.27,17.89-28.38,26.08-43.69,10.1-6.21,21.49-13.79,31.59-18.3-13.48,24.25-29.76,51.51-43.24,72.79Z"/><path class="b" d="M458.77,593.71c0,8.44,0,12.66,0,21.13-32.37-1.41-64.74-1.52-97.11-1.12,0-45.22,0-88.31,0-126.54,39.62-14.05,63.3-5.15,96.49,37.36,0,8.41,0,8.24,0,16.7-23.18-23.52-47.17-32.43-70.36-31.3,0,8.16,0,12.3,0,20.68,19.11-.78,38.22,3.48,57.33,15.97,0,9.15,0,13.76,0,23.07-19.11-8.82-38.22-11.83-57.33-11.28,0,9.45,0,14.24,0,23.94,23.66-.42,47.32,2.5,70.98,11.39Z"/></g><g><path class="b" d="M233.61,537.44c0,6.55,0,9.73,0,15.93-32.37,12.08-64.74,8.6-97.11-34.05,0-29.68,0-53.21,0-83.51,29.82,45.32,63.78,53.36,95.68,39.57,0,8,0,10.97,0,18.6-23.18,10.69-46.37,10.9-69.55-10.53,0,5.67,0,8.47,0,14,19.11,17.22,38.22,20.11,57.33,14.75,0,6.86,0,10.2,0,16.71-19.11,5.08-38.22,2.34-57.33-14,0,5.67,0,8.46,0,13.96,23.66,18.99,47.32,18.42,70.98,8.56Z"/><path class="b" d="M310.31,458.75c13.78,4.46,27.56,11.5,41.34,23.98-10.62,4.93-21.23,11.28-31.85,18.2-8.54-5.03-17.07-8.48-25.61-11.22-8.54,16.38-17.07,31.87-25.61,45.66-10.05,6.28-19.49,12.57-30.16,16.27,13.74-17.57,27.47-40.81,41.21-66.81-13.43-3.39-26.47-6.06-39.91-13.4,10.62-5.92,22.06-13.4,32.68-22.21,8.23,2.4,15.24,3.06,23.48,5.09,8.19-16.43,19.09-33.59,27.28-49.85,10.1-8.56,18.99-15.6,29.09-21.82-13.48,23.24-28.47,49.67-41.94,76.11Z"/><path class="b" d="M458.77,491.9c0,8.25,0,12.39,0,20.67-32.37-42.65-64.74-46.13-97.11-34.05,0-37.62,0-70.88,0-101.52,31.89-15.53,60.92-16.22,97.11,49.65,0,8.13,0,5.62,0,13.8-23.18-38.2-47.8-52.76-70.98-50.92,0,6.43,0,9.69,0,16.34,19.11-1.48,38.22,6.61,57.33,30.36,0,8.16,0,12.27,0,20.59-19.11-22.53-38.22-30.21-57.33-28.81,0,7.58,0,11.43,0,19.27,23.66-1.63,47.32,9.81,70.98,44.61Z"/></g><g><path class="b" d="M233.61,444.76c0,8.58,0,12.78,0,21.01-32.37,15.76-64.74,11.22-97.11-44.42,0-30.36,0-57.14,0-88.13,30.58,35.57,63.95,39.32,95.68,29.31,0,10.06,0,16.36,0,26.06-23.18,9.29-46.37,9.47-69.55-9.15,0,6.87,0,10.26,0,16.97,19.11,16.28,38.22,19.01,57.33,13.95,0,9.02,0,13.44,0,22.09-19.11,5.34-38.22,2.46-57.33-14.72,0,6.96,0,10.39,0,17.17,23.66,21.87,47.32,21.2,70.98,9.86Z"/><path class="b" d="M310.31,359.81c13.78,3.66,27.56,6.77,41.34,13.81-10.62,6.43-21.23,14.71-31.85,23.74-8.54-2.36-17.07-4.13-25.61-6.39-8.54,17.18-17.07,34.64-25.61,51.31-10.05,8.19-20.05,15.93-30.16,21,13.74-23.02,27.47-50.32,41.21-77.5-13.43-4.62-26.87-13.42-40.3-26.06,10.62-4.54,22.18-10.02,32.8-16.77,8.23,5.1,15.52,9.45,23.76,12.22,8.19-15.84,18.93-30.75,27.12-44.42,10.1-6.56,18.56-10.68,28.65-15.45-13.48,18.01-27.86,38.96-41.34,64.52Z"/><path class="b" d="M458.77,392.33c0,8.07,0,12.11,0,20.22-32.37-55.63-64.74-60.17-97.11-44.42,0-30.03,.15-54.43,.15-77.48,32.9-12.51,64.64-8.02,96.49,35.04,0,7.84-.15,6.94-.15,14.83-23.18-33.18-47.17-44.28-70.36-42.68,0,4.69,0,7.09,0,12.01,19.11-1.4,38.22,6.25,57.33,28.7,0,7.17,0,10.79,0,18.12-19.11-23.69-38.22-31.76-57.33-30.29,0,5.71,0,8.63,0,14.59,23.66-1.88,47.32,11.29,70.98,51.35Z"/></g><g><path class="b" d="M233.61,327.28c0,10.61,0,15.83,0,26.08-32.37,11.43-64.74,8.14-97.11-32.23,0-31.05,0-62.41,0-94.08,31.89,1.39,63.79,1.52,95.68,1.14,0,12.12,0,18.09,0,29.84-23.18,2.37-46.37,2.42-69.55-2.34,0,8.06,0,12.05,0,19.95,19.11,6.23,38.22,7.27,57.33,5.33,0,11.17,0,16.66,0,27.48-19.11,2.77-38.22,1.28-57.33-7.63,0,8.24,0,12.32,0,20.38,23.66,13.47,47.32,13.06,70.98,6.07Z"/><path class="b" d="M310.31,266.63c13.78,9.06,27.56,14.04,41.34,19.88-10.62,4.67-21.23,10.67-31.85,17.23-8.54-3.38-17.07-7.41-25.61-13.08-8.54,14.08-17.07,29.65-25.61,45.67-10.05,5.95-20.11,11.25-30.16,15.23,13.74-24.66,27.47-50.66,41.21-72.98-13.43-11.77-26.87-28.74-40.3-50.48,10.62-.15,21.23-.35,31.85-.57,8.23,11.28,16.47,20.41,24.7,27.68,8.19-11.51,16.38-21.22,24.57-28.78,10.1-.22,20.19-.42,30.29-.57-13.48,8.57-26.95,22.15-40.43,40.77Z"/><path class="b" d="M458.77,295c0,7.89,0,11.84,0,19.76-32.37-40.37-64.74-43.66-97.11-32.23,0-22.43,0-41.37,0-56.82,31.89-.39,65.22-.29,97.11,1.06,0,7.56,0,11.35,0,18.96-23.18-8.47-47.8-11.27-70.98-10.86,0,2.96,0,4.49,0,7.67,19.11-.53,38.22,2.39,57.33,10.98,0,6.17,0,9.3,0,15.64-19.11-12.29-38.22-16.47-57.33-15.71,0,3.84,0,5.82,0,9.92,23.66-1.16,47.32,6.95,70.98,31.62Z"/></g></svg>
